# Blender v3.6.0 OBJ File: 'Modular Dungeon.blend'
# www.blender.org
mtllib Barell.mtl
o Barrel_Cylinder
v 0.000000 -0.600000 0.411121
v -0.205560 -0.600000 0.356041
v -0.205560 0.600000 0.356041
v -0.356041 0.600000 0.205560
v -0.411121 -0.600000 0.000000
v -0.411121 0.600000 0.000000
v -0.356041 -0.600000 -0.205560
v -0.205560 -0.600000 -0.356041
v -0.205560 0.600000 -0.356041
v 0.000000 0.600000 -0.411121
v 0.205560 -0.600000 -0.356041
v 0.205560 0.600000 -0.356041
v 0.356041 -0.600000 -0.205560
v 0.411121 -0.600000 0.000000
v 0.411121 0.600000 0.000000
v 0.356041 0.600000 0.205560
v 0.205560 -0.600000 0.356041
v 0.205560 0.600000 0.356041
v 0.308966 0.319738 -0.535145
v 0.320627 0.155008 -0.555342
v 0.320627 -0.155008 -0.555342
v 0.308966 -0.319738 -0.535145
v 0.535145 0.319738 -0.308966
v 0.555342 0.155008 -0.320627
v 0.555342 -0.155008 -0.320627
v 0.535145 -0.319738 -0.308966
v 0.617932 0.319738 0.000000
v 0.641253 0.155008 0.000000
v 0.641253 -0.155008 0.000000
v 0.617932 -0.319738 0.000000
v 0.535145 0.319738 0.308966
v 0.555342 0.155008 0.320627
v 0.555342 -0.155008 0.320627
v 0.535145 -0.319738 0.308966
v -0.000000 0.155008 0.641253
v -0.000000 0.319738 0.617932
v 0.301784 0.310029 0.545498
v 0.320627 0.155008 0.555342
v -0.000000 -0.319738 0.617932
v -0.000000 -0.155008 0.641253
v 0.320627 -0.155008 0.555342
v 0.308966 -0.319738 0.535145
v 0.000000 -0.155008 0.596768
v 0.000000 -0.319738 0.575065
v 0.000000 0.319738 0.575065
v 0.000000 0.155008 0.596768
v -0.298384 0.155008 0.516816
v -0.287532 0.319738 0.498020
v -0.287532 -0.319738 0.498020
v -0.298384 -0.155008 0.516816
v -0.516816 0.155008 0.298384
v -0.498020 0.319738 0.287532
v -0.498020 -0.319738 0.287532
v -0.516816 -0.155008 0.298384
v -0.596768 0.155008 0.000000
v -0.575065 0.319738 0.000000
v -0.575065 -0.319738 0.000000
v -0.596768 -0.155008 0.000000
v -0.516816 0.155008 -0.298384
v -0.498020 0.319738 -0.287532
v -0.498020 -0.319738 -0.287532
v -0.516816 -0.155008 -0.298384
v -0.298384 0.155008 -0.516816
v -0.287532 0.319738 -0.498020
v -0.287532 -0.319738 -0.498020
v -0.298384 -0.155008 -0.516816
v 0.000000 0.155008 -0.596768
v 0.000000 0.319738 -0.575065
v 0.000000 -0.319738 -0.575065
v 0.000000 -0.155008 -0.596768
v 0.298384 0.155008 -0.516816
v 0.287532 0.319738 -0.498020
v 0.287532 -0.319738 -0.498020
v 0.298384 -0.155008 -0.516816
v 0.516816 0.155008 -0.298384
v 0.498020 0.319738 -0.287532
v 0.498020 -0.319738 -0.287532
v 0.516816 -0.155008 -0.298384
v 0.596768 0.155008 0.000000
v 0.575065 0.319738 0.000000
v 0.575065 -0.319738 0.000000
v 0.596768 -0.155008 0.000000
v 0.516816 0.155008 0.298384
v 0.498020 0.319738 0.287532
v 0.498020 -0.319738 0.287532
v 0.516816 -0.155008 0.298384
v 0.298384 0.155008 0.516816
v 0.287532 0.319738 0.498020
v 0.287532 -0.319738 0.498020
v 0.298384 -0.155008 0.516816
v -0.000000 -0.319738 -0.617932
v -0.000000 -0.155008 -0.641253
v -0.000000 0.155008 -0.641253
v -0.000000 0.319738 -0.617932
v -0.308966 -0.319738 -0.535145
v -0.320627 -0.155008 -0.555342
v -0.320627 0.155008 -0.555342
v -0.309738 0.306607 -0.538697
v -0.535145 -0.319738 -0.308966
v -0.555342 -0.155008 -0.320627
v -0.555342 0.155008 -0.320627
v -0.535145 0.319738 -0.308966
v -0.617932 -0.319738 0.000000
v -0.641253 -0.155008 0.000000
v -0.641253 0.155008 0.000000
v -0.638903 0.308509 -0.015238
v -0.535145 -0.319738 0.308966
v -0.555342 -0.155008 0.320627
v -0.555342 0.155008 0.320627
v -0.535145 0.319738 0.308966
v -0.308966 -0.319738 0.535145
v -0.320627 -0.155008 0.555342
v -0.331619 0.155008 0.549131
v -0.297074 0.313875 0.538116
v 0.000000 -0.600000 0.500000
v -0.250000 -0.600000 0.433013
v -0.250000 0.600000 0.433013
v -0.419276 0.615868 0.243230
v -0.500000 -0.600000 0.000000
v -0.500000 0.600000 0.000000
v -0.433013 -0.600000 -0.250000
v -0.250000 -0.600000 -0.433013
v -0.250000 0.600000 -0.433013
v 0.000000 0.600000 -0.500000
v 0.250000 -0.600000 -0.433013
v 0.250000 0.600000 -0.433013
v 0.433013 -0.600000 -0.250000
v 0.500000 -0.600000 0.000000
v 0.500000 0.600000 0.000000
v 0.433013 0.600000 0.250000
v 0.250000 -0.600000 0.433013
v 0.255199 0.583426 0.441934
v 0.000000 -0.529889 0.404370
v -0.202185 -0.529889 0.350195
v -0.202185 0.529889 0.350195
v 0.000000 0.529889 0.404370
v -0.350195 -0.529889 0.202185
v -0.350195 0.529889 0.202185
v -0.404370 -0.529889 0.000000
v -0.404370 0.529889 0.000000
v -0.350195 -0.529889 -0.202185
v -0.350195 0.529889 -0.202185
v -0.202185 -0.529889 -0.350195
v -0.202185 0.529889 -0.350195
v 0.000000 -0.529889 -0.404370
v 0.000000 0.529889 -0.404370
v 0.202185 -0.529889 -0.350195
v 0.202185 0.529889 -0.350195
v 0.350195 -0.529889 -0.202185
v 0.350195 0.529889 -0.202185
v 0.404370 -0.529889 0.000000
v 0.404370 0.529889 0.000000
v 0.350195 -0.529889 0.202185
v 0.350195 0.529889 0.202185
v 0.202185 -0.529889 0.350195
v 0.202185 0.529889 0.350195
v -0.071607 0.600000 0.391934
v 0.072160 0.600000 0.391786
v 0.000000 0.529939 0.404375
v 0.070725 0.586599 0.486945
v -0.072983 0.591342 0.483934
v -0.001011 0.518289 0.522832
v 0.374903 0.600000 -0.135168
v 0.304510 0.600000 -0.257092
v 0.381482 0.600000 -0.301531
v 0.451874 0.600000 -0.179607
v 0.448785 0.532004 -0.259106
v -0.303101 0.600000 -0.258500
v -0.375277 0.600000 -0.133770
v -0.458649 0.592102 -0.180353
v -0.386613 0.592094 -0.305228
v -0.456477 0.518870 -0.262387
v -0.303689 -0.600000 0.257913
v -0.375204 -0.600000 0.134046
v -0.452175 -0.600000 0.178485
v -0.380660 -0.600000 0.302353
v -0.449036 -0.530920 0.259251
v -0.072082 -0.600000 -0.391807
v 0.072082 -0.600000 -0.391807
v 0.072082 -0.600000 -0.480686
v -0.072082 -0.600000 -0.480686
v 0.000000 -0.530373 -0.518649
v 0.375107 -0.600000 0.134407
v 0.303953 -0.600000 0.257648
v 0.380925 -0.600000 0.302088
v 0.452078 -0.600000 0.178847
v 0.448955 -0.531270 0.259204
vt 0.916667 0.870713
vt 0.916667 1.000000
vt 0.833333 1.000000
vt 0.833333 0.870713
vt 0.916667 0.695886
vt 0.916667 0.804114
vt 0.833333 0.804114
vt 0.833333 0.695886
vt 0.750000 0.804114
vt 0.750000 0.695886
vt 0.666667 0.804114
vt 0.666667 0.695886
vt 0.583333 0.804114
vt 0.583333 0.695886
vt 0.500000 0.804114
vt 0.500000 0.695886
vt 0.416667 0.804114
vt 0.416667 0.695886
vt 0.333333 0.804114
vt 0.333333 0.695886
vt 0.250000 0.804114
vt 0.250000 0.695886
vt 0.166667 0.804114
vt 0.166667 0.695886
vt 0.651331 0.079100
vt 0.715401 0.061933
vt 0.715401 0.019271
vt 0.630000 0.042154
vt 0.083333 0.804114
vt 0.083333 0.695886
vt 0.083333 0.870713
vt 0.083333 1.000000
vt 0.023415 1.000000
vt 0.000000 0.966461
vt 0.000000 0.870713
vt 0.079100 0.348669
vt 0.052662 0.250000
vt 0.052662 0.250000
vt 0.079100 0.348669
vt 1.000000 0.695886
vt 1.000000 0.804114
vt 0.083333 0.695886
vt 0.000000 0.695886
vt 0.000000 0.629287
vt 0.083333 0.629287
vt 0.166667 0.870713
vt 0.166667 1.000000
vt 0.142949 0.500000
vt 0.166667 0.531706
vt 0.166667 0.629287
vt 0.083333 0.629287
vt 0.083333 0.500000
vt 0.250000 0.870713
vt 0.250000 1.000000
vt 0.333333 0.500000
vt 0.333333 0.629287
vt 0.250000 0.629287
vt 0.250000 0.500000
vt 0.416667 0.500000
vt 0.416667 0.629287
vt 0.333333 0.870713
vt 0.333333 0.968633
vt 0.309869 1.000000
vt 0.500000 0.870713
vt 0.500000 1.000000
vt 0.416667 1.000000
vt 0.416667 0.870713
vt 0.475973 0.500000
vt 0.500000 0.532120
vt 0.500000 0.629287
vt 0.583333 0.870713
vt 0.583333 1.000000
vt 0.666667 0.500000
vt 0.666667 0.629287
vt 0.583333 0.629287
vt 0.583333 0.500000
vt 0.750000 0.500000
vt 0.750000 0.629287
vt 0.666667 0.870713
vt 0.666667 0.966364
vt 0.642668 1.000000
vt 0.750000 1.000000
vt 0.750000 0.870713
vt 0.809495 0.500000
vt 0.833333 0.531867
vt 0.833333 0.629287
vt 0.000000 0.629287
vt 0.000000 0.500000
vt 0.000000 0.804114
vt 0.000000 0.695886
vt 0.416667 0.870713
vt 0.500000 0.870713
vt 0.166667 0.695886
vt 0.666667 0.804114
vt 0.583333 0.804114
vt 0.333333 0.629287
vt 0.250000 0.629287
vt 0.583333 0.870713
vt 0.666667 0.870713
vt 0.250000 0.695886
vt 0.333333 0.695886
vt 0.833333 0.804114
vt 0.750000 0.804114
vt 0.500000 0.629287
vt 0.416667 0.629287
vt 0.083333 0.804114
vt 0.000000 0.804114
vt 0.750000 0.870713
vt 0.833333 0.870713
vt 0.416667 0.695886
vt 0.500000 0.695886
vt 0.666667 0.629287
vt 0.583333 0.629287
vt 0.250000 0.804114
vt 0.166667 0.804114
vt 0.000000 0.870713
vt 0.083333 0.870713
vt 0.583333 0.695886
vt 0.666667 0.695886
vt 0.166667 0.870713
vt 0.250000 0.870713
vt 0.833333 0.629287
vt 0.750000 0.629287
vt 0.416667 0.804114
vt 0.333333 0.804114
vt 1.000000 0.804114
vt 0.916667 0.804114
vt 0.750000 0.695886
vt 0.833333 0.695886
vt 0.333333 0.870713
vt 1.000000 0.870713
vt 0.916667 0.870713
vt 1.000000 0.870713
vt 0.500000 0.804114
vt 1.000000 0.500000
vt 1.000000 0.629287
vt 0.916667 0.629287
vt 0.916667 0.500000
vt 0.166667 0.629287
vt 0.916667 0.695886
vt 0.916667 0.629287
vt 1.000000 0.695886
vt 1.000000 0.629287
vt 0.848669 0.420900
vt 0.750000 0.447338
vt 0.750000 0.490000
vt 0.870000 0.457846
vt 0.250000 0.447338
vt 0.215363 0.438057
vt 0.151331 0.420900
vt 0.151331 0.420900
vt 0.250000 0.447338
vt 0.920586 0.348982
vt 0.930098 0.314342
vt 0.947338 0.250000
vt 0.947338 0.250000
vt 0.348669 0.420900
vt 0.420900 0.348669
vt 0.457846 0.370000
vt 0.370000 0.457846
vt 0.857172 0.500000
vt 0.447338 0.250000
vt 0.490000 0.250000
vt 0.920900 0.151331
vt 0.990000 0.250000
vt 0.957846 0.130000
vt 0.348669 0.079100
vt 0.395489 0.125920
vt 0.420900 0.151331
vt 0.348669 0.079100
vt 0.848669 0.079100
vt 0.870000 0.042154
vt 0.430133 0.185791
vt 0.467128 0.164641
vt 0.750000 0.051496
vt 0.651331 0.079100
vt 0.250000 0.052662
vt 0.250000 0.010000
vt 0.370000 0.042154
vt 0.524027 0.500000
vt 0.151331 0.079100
vt 0.130000 0.042154
vt 0.579100 0.151331
vt 0.542154 0.130000
vt 0.070047 0.185119
vt 0.079100 0.151331
vt 0.552662 0.250000
vt 0.510000 0.250000
vt 0.103835 0.126596
vt 0.066889 0.105265
vt 0.578127 0.349231
vt 0.604102 0.373671
vt 0.651331 0.420900
vt 0.651331 0.420900
vt 0.042154 0.370000
vt 0.010000 0.250000
vt 0.190384 0.500000
vt 0.130000 0.457846
vt 0.630000 0.457846
vt 1.000000 0.966461
vt 0.975996 1.000000
vt 0.348669 0.420900
vt 0.151331 0.079100
vt 0.250000 0.052662
vt 0.447338 0.250000
vt 0.420900 0.348669
vt 0.750000 0.447338
vt 0.848669 0.420900
vt 0.920900 0.348669
vt 0.920900 0.151331
vt 0.848669 0.079100
vt 0.750000 0.052662
vt 0.579100 0.151331
vt 0.552662 0.250000
vt 0.579100 0.348669
vt 0.567156 0.395002
vt 0.432548 0.104702
vt 0.033100 0.163789
vt 0.216282 0.480965
vt 0.284371 0.438128
vt 0.284565 0.480738
vt 0.690723 1.000000
vt 0.895771 0.373798
vt 0.932717 0.395129
vt 0.356798 1.000000
vt 0.784599 0.061933
vt 0.784599 0.019271
vt 0.569949 0.314516
vt 0.533002 0.335847
vt 0.967044 0.335673
vt 0.257663 0.459665
vt 0.249260 0.501258
vt 0.042653 0.130288
vt 0.077534 0.150427
vt 0.466078 0.124921
vt 0.426097 0.138093
vt 0.922526 0.349608
vt 0.957846 0.370000
vt 0.750000 0.010000
vt 0.542154 0.370000
vn -0.6938 0.2668 0.6689
vn -0.7071 0.0000 0.7071
vn -0.9659 0.0000 0.2588
vn -0.9659 0.0000 -0.2588
vn -0.7071 0.0000 -0.7071
vn -0.2588 0.0000 -0.9659
vn 0.2588 0.0000 -0.9659
vn 0.7071 0.0000 -0.7071
vn 0.9659 0.0000 -0.2588
vn 0.9659 0.0000 0.2588
vn 0.0000 -1.0000 0.0000
vn 0.7071 0.0000 0.7071
vn 0.2435 0.2389 0.9400
vn -0.9618 0.0926 -0.2577
vn -0.2588 0.0000 0.9659
vn 0.2564 -0.1355 0.9570
vn 0.6934 0.2410 0.6790
vn 0.6846 -0.2505 0.6846
vn 0.9351 0.2505 0.2506
vn 0.9351 -0.2505 -0.2506
vn 0.6846 -0.2505 -0.6846
vn 0.9351 0.2505 -0.2506
vn 0.2506 0.2505 -0.9351
vn 0.2506 -0.2505 -0.9351
vn -0.2506 0.2505 -0.9351
vn -0.6846 -0.2505 -0.6846
vn -0.9351 -0.2505 -0.2506
vn -0.6791 0.2412 -0.6933
vn -0.9258 0.2676 0.2672
vn -0.9351 -0.2505 0.2506
vn 0.2506 -0.2505 0.9351
vn 0.2588 0.0000 0.9659
vn 0.0000 1.0000 0.0000
vn -0.0923 0.9884 -0.1208
vn -0.1097 0.9939 0.0142
vn 0.0418 0.9941 0.1002
vn -0.0280 0.9973 0.0673
vn -0.2506 -0.2505 0.9351
vn 0.2466 0.1143 0.9623
vn 0.7006 -0.1355 0.7006
vn 0.7018 0.1328 0.6999
vn 0.9570 -0.1355 0.2564
vn 0.9570 0.1355 0.2564
vn 0.9570 -0.1355 -0.2564
vn 0.9570 0.1355 -0.2564
vn 0.7006 -0.1355 -0.7006
vn 0.7006 0.1355 -0.7006
vn 0.2564 -0.1355 -0.9570
vn 0.2564 0.1355 -0.9570
vn -0.2564 -0.1355 -0.9570
vn -0.2538 0.1298 -0.9585
vn -0.7006 -0.1355 -0.7006
vn -0.7024 0.1316 -0.6995
vn -0.9570 -0.1355 -0.2564
vn -0.9539 0.0643 -0.2933
vn -0.9570 -0.1355 0.2564
vn -0.9558 0.0913 0.2795
vn -0.7006 -0.1355 0.7006
vn -0.6930 0.1664 0.7014
vn -0.2564 -0.1355 0.9570
vn -0.2627 0.1295 0.9561
vn 0.0681 0.9937 0.0892
vn -0.0459 0.9971 0.0602
vn -0.1056 0.9943 -0.0136
vn -0.0583 0.9885 -0.1398
vn -0.2577 0.0926 -0.9618
vn 0.9618 -0.0926 -0.2577
vn 0.0979 0.9941 -0.0456
vn -0.6846 -0.2505 0.6846
vn 0.0884 0.9942 -0.0619
vn 0.7041 0.0926 0.7041
vn -0.0366 0.9987 -0.0341
vn -0.2577 -0.0926 0.9618
vn -0.2506 -0.2505 -0.9351
vn -0.9618 0.0926 0.2577
vn -0.7041 -0.0926 -0.7041
vn 0.9351 -0.2505 0.2506
vn 0.0406 0.9954 0.0871
vn -0.2534 0.2479 0.9351
vn 0.9618 0.0926 -0.2577
vn -0.2577 0.0926 0.9618
vn 0.9618 -0.0926 0.2577
vn -0.7041 0.0926 -0.7041
vn -0.7041 -0.0926 0.7041
vn -0.0477 0.9988 -0.0145
vn -0.2577 -0.0926 -0.9618
vn 0.2577 -0.0926 -0.9618
vn 0.7041 -0.0926 0.7041
vn 0.0481 0.9874 0.1507
vn 0.0126 0.9984 0.0546
vn -0.9618 -0.0926 0.2577
vn -0.9405 0.2400 -0.2404
vn 0.6846 0.2505 -0.6846
vn 0.7041 0.0926 -0.7041
vn 0.2577 0.0926 0.9618
vn -0.6772 0.7316 0.0780
vn 0.6899 0.7198 0.0773
vn 0.2577 0.0926 -0.9618
vn -0.3572 0.7125 -0.6039
vn 0.3444 0.7125 0.6113
vn -0.7041 0.0926 0.7041
vn -0.3945 0.7183 0.5731
vn 0.2850 0.7192 -0.6336
vn 0.9618 0.0926 0.2577
vn 0.3522 -0.7160 0.6027
vn -0.3459 -0.7160 -0.6064
vn 0.7041 -0.0926 -0.7041
vn -0.6963 -0.7177 0.0017
vn 0.6963 -0.7177 0.0017
vn 0.2577 -0.0926 0.9618
vn 0.3454 -0.7149 -0.6080
vn -0.3538 -0.7149 0.6031
vn -0.9618 -0.0926 -0.2577
usemtl None
s off
f 48/1/1 117/2/1 118/3/1 52/4/1
f 50/5/2 47/6/2 51/7/2 54/8/2
f 54/8/3 51/7/3 55/9/3 58/10/3
f 58/10/4 55/9/4 59/11/4 62/12/4
f 62/12/5 59/11/5 63/13/5 66/14/5
f 66/14/6 63/13/6 67/15/6 70/16/6
f 70/16/7 67/15/7 71/17/7 74/18/7
f 74/18/8 71/17/8 75/19/8 78/20/8
f 78/20/9 75/19/9 79/21/9 82/22/9
f 82/22/10 79/21/10 83/23/10 86/24/10
f 11/25/11 179/26/11 180/27/11 125/28/11
f 86/24/12 83/23/12 87/29/12 90/30/12
f 88/31/13 132/32/13 160/33/13 162/34/13 45/35/13
f 16/36/14 15/37/14 152/38/14 154/39/14
f 43/40/15 46/41/15 47/6/15 50/5/15
f 41/42/16 40/43/16 39/44/16 42/45/16
f 84/46/17 130/47/17 132/32/17 88/31/17
f 185/48/18 187/49/18 85/50/18 89/51/18 131/52/18
f 80/53/19 129/54/19 130/47/19 84/46/19
f 127/55/20 77/56/20 81/57/20 128/58/20
f 125/59/21 73/60/21 77/56/21 127/55/21
f 76/61/22 167/62/22 166/63/22 129/54/22 80/53/22
f 68/64/23 124/65/23 126/66/23 72/67/23
f 180/68/24 182/69/24 69/70/24 73/60/24 125/59/24
f 64/71/25 123/72/25 124/65/25 68/64/25
f 121/73/26 61/74/26 65/75/26 122/76/26
f 119/77/27 57/78/27 61/74/27 121/73/27
f 60/79/28 172/80/28 171/81/28 123/72/28 64/71/28
f 52/4/29 118/3/29 120/82/29 56/83/29
f 175/84/30 177/85/30 53/86/30 57/78/30 119/77/30
f 131/52/31 89/51/31 44/87/31 115/88/31
f 90/30/32 87/29/32 46/89/32 43/90/32
f 68/64/33 72/67/33 19/91/33 94/92/33
f 86/24/33 90/30/33 41/42/33 33/93/33
f 63/13/11 59/11/11 101/94/11 97/95/11
f 81/57/11 77/56/11 26/96/11 30/97/11
f 60/79/34 64/71/34 98/98/34 102/99/34
f 78/20/33 82/22/33 29/100/33 25/101/33
f 55/9/11 51/7/11 109/102/11 105/103/11
f 73/60/11 69/70/11 91/104/11 22/105/11
f 46/89/11 87/29/11 38/106/11 35/107/11
f 52/4/35 56/83/35 106/108/35 110/109/35
f 70/16/33 74/18/33 21/110/33 92/111/33
f 65/75/11 61/74/11 99/112/11 95/113/11
f 83/23/11 79/21/11 28/114/11 32/115/11
f 88/31/36 45/35/36 36/116/36 37/117/36
f 62/12/33 66/14/33 96/118/33 100/119/33
f 80/53/33 84/46/33 31/120/33 27/121/33
f 57/78/11 53/86/11 107/122/11 103/123/11
f 75/19/11 71/17/11 20/124/11 24/125/11
f 47/6/11 46/41/11 35/126/11 113/127/11
f 54/8/33 58/10/33 104/128/33 108/129/33
f 72/67/33 76/61/33 23/130/33 19/91/33
f 44/87/11 89/51/11 42/45/11 39/44/11
f 45/131/37 48/1/37 114/132/37 36/133/37
f 67/15/11 63/13/11 97/95/11 93/134/11
f 115/135/38 44/136/38 49/137/38 116/138/38
f 37/117/39 36/116/39 35/107/39 38/106/39
f 33/93/40 41/42/40 42/45/40 34/139/40
f 31/120/41 37/117/41 38/106/41 32/115/41
f 29/100/42 33/93/42 34/139/42 30/97/42
f 27/121/43 31/120/43 32/115/43 28/114/43
f 25/101/44 29/100/44 30/97/44 26/96/44
f 23/130/45 27/121/45 28/114/45 24/125/45
f 21/110/46 25/101/46 26/96/46 22/105/46
f 19/91/47 23/130/47 24/125/47 20/124/47
f 92/111/48 21/110/48 22/105/48 91/104/48
f 94/92/49 19/91/49 20/124/49 93/134/49
f 96/118/50 92/111/50 91/104/50 95/113/50
f 98/98/51 94/92/51 93/134/51 97/95/51
f 100/119/52 96/118/52 95/113/52 99/112/52
f 102/99/53 98/98/53 97/95/53 101/94/53
f 104/128/54 100/119/54 99/112/54 103/123/54
f 106/108/55 102/99/55 101/94/55 105/103/55
f 108/129/56 104/128/56 103/123/56 107/122/56
f 110/109/57 106/108/57 105/103/57 109/102/57
f 112/140/58 108/129/58 107/122/58 111/141/58
f 114/132/59 110/109/59 109/102/59 113/127/59
f 40/142/60 112/140/60 111/141/60 39/143/60
f 36/133/61 114/132/61 113/127/61 35/126/61
f 50/5/33 54/8/33 108/129/33 112/140/33
f 89/51/11 85/50/11 34/139/11 42/45/11
f 71/17/11 67/15/11 93/134/11 20/124/11
f 53/86/11 49/137/11 111/141/11 107/122/11
f 76/61/33 80/53/33 27/121/33 23/130/33
f 58/10/33 62/12/33 100/119/33 104/128/33
f 79/21/11 75/19/11 24/125/11 28/114/11
f 61/74/11 57/78/11 103/123/11 99/112/11
f 84/46/62 88/31/62 37/117/62 31/120/62
f 66/14/33 70/16/33 92/111/33 96/118/33
f 48/1/63 52/4/63 110/109/63 114/132/63
f 87/29/11 83/23/11 32/115/11 38/106/11
f 69/70/11 65/75/11 95/113/11 91/104/11
f 51/7/11 47/6/11 113/127/11 109/102/11
f 74/18/33 78/20/33 25/101/33 21/110/33
f 56/83/64 60/79/64 102/99/64 106/108/64
f 43/40/33 50/5/33 112/140/33 40/142/33
f 90/30/33 43/90/33 40/43/33 41/42/33
f 77/56/11 73/60/11 22/105/11 26/96/11
f 59/11/11 55/9/11 105/103/11 101/94/11
f 82/22/33 86/24/33 33/93/33 29/100/33
f 64/71/65 68/64/65 94/92/65 98/98/65
f 49/137/11 44/136/11 39/143/11 111/141/11
f 85/50/11 81/57/11 30/97/11 34/139/11
f 2/144/11 1/145/11 115/146/11 116/147/11
f 159/148/66 158/149/66 18/150/66 156/151/66 136/152/66
f 137/153/67 174/154/67 5/155/67 139/156/67
f 3/157/68 4/158/68 118/159/68 117/160/68
f 116/138/69 49/137/69 53/86/69 177/85/69 176/161/69
f 4/158/70 6/162/70 120/163/70 118/159/70
f 7/164/11 5/155/11 119/165/11 121/166/11
f 9/167/71 168/168/71 142/169/71 144/170/71
f 8/171/11 7/164/11 121/166/11 122/172/11
f 6/162/72 169/173/72 170/174/72 120/163/72
f 145/175/73 179/26/73 11/25/73 147/176/73
f 9/167/33 10/177/33 124/178/33 123/179/33
f 122/76/74 65/75/74 69/70/74 182/69/74 181/180/74
f 10/177/33 12/181/33 126/182/33 124/178/33
f 13/183/11 11/25/11 125/28/11 127/184/11
f 15/37/75 163/185/75 150/186/75 152/38/75
f 14/187/11 13/183/11 127/184/11 128/188/11
f 12/181/33 164/189/33 165/190/33 126/182/33
f 153/191/76 184/192/76 17/193/76 155/194/76
f 15/37/33 16/36/33 130/195/33 129/196/33
f 128/58/77 81/57/77 85/50/77 187/49/77 186/197/77
f 16/36/78 18/150/78 132/198/78 130/195/78
f 1/145/11 17/193/11 131/199/11 115/146/11
f 45/131/79 162/200/79 161/201/79 117/2/79 48/1/79
f 135/202/33 136/152/33 156/151/33 154/39/33 152/38/33 150/186/33 148/203/33 146/204/33 144/170/33 142/169/33 140/205/33 138/206/33
f 133/207/11 134/208/11 137/209/11 139/156/11 141/210/11 143/211/11 145/212/11 147/176/11 149/213/11 151/214/11 153/215/11 155/194/11
f 6/162/80 4/158/80 138/206/80 140/205/80
f 17/193/11 184/192/11 185/216/11 131/199/11
f 12/181/81 10/177/81 146/204/81 148/203/81
f 5/155/82 7/164/82 141/210/82 139/156/82
f 18/150/83 16/36/83 154/39/83 156/151/83
f 11/25/84 13/183/84 149/213/84 147/176/84
f 168/168/85 9/167/85 123/179/85 171/217/85
f 17/193/86 1/145/86 133/207/86 155/194/86
f 1/145/87 2/144/87 134/208/87 133/207/87
f 163/185/33 15/37/33 129/196/33 166/218/33
f 7/164/88 8/171/88 143/211/88 141/210/88
f 18/150/89 158/149/89 160/219/89 132/198/89
f 157/220/90 3/157/90 117/160/90 161/221/90
f 13/183/91 14/187/91 151/214/91 149/213/91
f 56/83/92 120/82/92 170/222/92 172/80/92 60/79/92
f 173/223/11 2/144/11 116/147/11 176/224/11
f 72/67/93 126/66/93 165/225/93 167/62/93 76/61/93
f 178/226/11 8/171/11 122/172/11 181/227/11
f 4/158/94 3/157/94 135/202/94 138/206/94
f 183/228/11 14/187/11 128/188/11 186/229/11
f 10/177/95 9/167/95 144/170/95 146/204/95
f 5/155/11 174/154/11 175/230/11 119/165/11
f 160/219/96 158/149/96 159/231/96 162/232/96
f 162/232/97 159/231/97 157/220/97 161/221/97
f 3/157/98 157/220/98 159/148/98 136/152/98 135/202/98
f 163/185/99 166/218/99 167/233/99 150/234/99
f 150/234/100 167/233/100 165/190/100 164/189/100
f 150/186/101 164/189/101 12/181/101 148/203/101
f 168/168/102 171/217/102 172/235/102 142/236/102
f 142/236/103 172/235/103 170/174/103 169/173/103
f 142/169/104 169/173/104 6/162/104 140/205/104
f 175/230/105 174/154/105 137/237/105 177/238/105
f 177/238/106 137/237/106 173/223/106 176/224/106
f 2/144/107 173/223/107 137/209/107 134/208/107
f 180/27/108 179/26/108 145/175/108 182/239/108
f 182/239/109 145/175/109 178/226/109 181/227/109
f 8/171/110 178/226/110 145/212/110 143/211/110
f 185/216/111 184/192/111 153/191/111 187/240/111
f 187/240/112 153/191/112 183/228/112 186/229/112
f 14/187/113 183/228/113 153/215/113 151/214/113
